<svg xmlns="http://www.w3.org/2000/svg" viewBox="0 0 476.71 81.49"><defs><style>.cls-1{fill:#f6f6f6;}.cls-2{fill:#f28c56;}.cls-3{fill:#ed6e73;}.cls-4{fill:#5c5477;}.cls-5{fill:#1072a9;}.cls-6{fill:#2991ba;}.cls-7{fill:#1da638;}.cls-8{fill:#5eb77a;}.cls-9{fill:#fcc653;}</style></defs><g id="Layer_2" data-name="Layer 2"><g id="Layer_1-2" data-name="Layer 1"><path class="cls-1" d="M115,43.85c0-18.71,13.8-34,31.44-34,17.48,0,30.51,14.72,30.51,35.27H123.56c.3,14,10,25.45,25,25.45,10.12,0,17.18-4.75,21-13.34L176,60.72c-4.91,10.58-14.57,16.87-27.45,16.87C129.08,77.59,115,62.25,115,43.85Zm8.59-4.6h45.08c-1.07-12.42-9.81-22.85-22.54-22.85S124.63,26.83,123.56,39.25Z"/><path class="cls-1" d="M196.7,11h2.76c3.22,0,4.6-.15,5.83-.76V25.76c3.83-10.28,13.5-15.95,25.15-15.95,14.11,0,22.08,7.66,22.08,23V76.36h-8.59V33.88c0-11.8-5.06-16.56-15.64-16.56-13.49,0-23,8.28-23,22.54v36.5H196.7Z"/><path class="cls-1" d="M277.21,10.27h8.59V76.36h-8.59Z"/><path class="cls-1" d="M304.2,67.16l5.06-5.37c3.68,5.06,10.43,9.05,21,9.05,10.89,0,17.79-4.14,17.79-12.11,0-5.37-3.07-8.59-13.19-10.43l-10.74-2c-11.19-2.14-17-8.43-17-17.17,0-11.66,10.43-19.32,24.69-19.32,10.43,0,19,4.14,22.85,10.88l-5.06,5.22c-3.22-5.68-10.12-9.36-18.71-9.36-9.2,0-15.64,4.14-15.64,12.43,0,5.67,3.22,9,12.57,10.73l10,1.84c11.66,2.15,18.4,7.67,18.4,16.87,0,11.81-10.88,19.17-26.68,19.17C318,77.59,308.34,73.6,304.2,67.16Z"/><path class="cls-1" d="M386.7,11h26.68v6.75H386.7v35c0,12.72,6,17.63,13.95,17.63a14.78,14.78,0,0,0,12.42-6.13l5.83,4.14c-3.52,5.82-10.27,9.2-18.25,9.2-13.64,0-22.54-9-22.54-25.76v-34H364.62V11H386.7Z"/><path class="cls-1" d="M424.27,60.41c0-13.49,12.42-17.63,27.91-19.17,12.11-1.22,15.95-2.45,15.95-10.58,0-9.35-4.91-13.8-15.65-13.8-9.5,0-15.94,3.37-19,9.82l-6.13-3.53c3.83-8.59,13.8-13.34,26.22-13.34,14.87,0,23.15,7.2,23.15,22.54v44h-8.43V64.09c-3.37,8.59-11.65,13.5-23.16,13.5C432.24,77.59,424.27,71.3,424.27,60.41Zm43.86-9.66V40.63c-2.3,4.29-6.29,5.52-14.88,6.44-12,1.23-20.55,3.68-20.55,12.73,0,7,4.91,11.35,14.26,11.35C459.23,71.15,468.13,64.25,468.13,50.75Z"/><polygon class="cls-2" points="69.82 12.19 50.71 30.6 41.11 0 69.82 12.19"/><polygon class="cls-3" points="81.49 41.11 50.71 30.6 69.82 12.19 81.49 41.11"/><polygon class="cls-4" points="69.3 69.82 50.71 30.6 81.49 41.11 69.3 69.82"/><polygon class="cls-5" points="40.38 81.49 50.71 30.6 69.3 69.82 40.38 81.49"/><polygon class="cls-6" points="11.68 69.3 50.71 30.6 40.38 81.49 11.68 69.3"/><polygon class="cls-7" points="0 40.38 50.71 30.6 11.68 69.3 0 40.38"/><polygon class="cls-8" points="12.19 11.68 50.71 30.6 0 40.38 12.19 11.68"/><polygon class="cls-9" points="41.11 0 50.71 30.6 12.19 11.68 41.11 0"/></g></g></svg>